<svg id="visual" viewBox="0 0 900 600" width="900" height="600" xmlns="http://www.w3.org/2000/svg" xmlns:xlink="http://www.w3.org/1999/xlink" version="1.1"><rect x="0" y="0" width="900" height="600" fill="#3B1C32"></rect><g transform="translate(496.89677830998687 354.2618199675911)"><path d="M233.7 -319.4C255.2 -260.4 192.2 -141.6 193.9 -46.8C195.6 48 261.9 118.7 259.6 175.3C257.2 231.9 186.2 274.3 122.3 268.1C58.4 261.9 1.5 207 -93.5 198C-188.5 189 -321.6 225.7 -348.1 194.1C-374.7 162.4 -294.7 62.3 -271.4 -44C-248.1 -150.4 -281.5 -262.9 -245.8 -319.4C-210 -375.9 -105 -376.5 0.5 -377.1C106.1 -377.7 212.1 -378.5 233.7 -319.4" fill="#6A1E55"></path></g></svg>