<svg id="visual" viewBox="0 0 900 600" width="900" height="600" xmlns="http://www.w3.org/2000/svg" xmlns:xlink="http://www.w3.org/1999/xlink" version="1.1"><rect x="0" y="0" width="900" height="600" fill="#fff"></rect><defs><linearGradient id="grad1_0" x1="33.3%" y1="0%" x2="100%" y2="100%"><stop offset="20%" stop-color="#4b91a2" stop-opacity="1"></stop><stop offset="80%" stop-color="#4b91a2" stop-opacity="1"></stop></linearGradient></defs><defs><linearGradient id="grad1_1" x1="33.3%" y1="0%" x2="100%" y2="100%"><stop offset="20%" stop-color="#4b91a2" stop-opacity="1"></stop><stop offset="80%" stop-color="#8ab5c0" stop-opacity="1"></stop></linearGradient></defs><defs><linearGradient id="grad1_2" x1="33.3%" y1="0%" x2="100%" y2="100%"><stop offset="20%" stop-color="#c5d9df" stop-opacity="1"></stop><stop offset="80%" stop-color="#8ab5c0" stop-opacity="1"></stop></linearGradient></defs><defs><linearGradient id="grad1_3" x1="33.3%" y1="0%" x2="100%" y2="100%"><stop offset="20%" stop-color="#c5d9df" stop-opacity="1"></stop><stop offset="80%" stop-color="#ffffff" stop-opacity="1"></stop></linearGradient></defs><defs><linearGradient id="grad2_0" x1="0%" y1="0%" x2="66.7%" y2="100%"><stop offset="20%" stop-color="#4b91a2" stop-opacity="1"></stop><stop offset="80%" stop-color="#4b91a2" stop-opacity="1"></stop></linearGradient></defs><defs><linearGradient id="grad2_1" x1="0%" y1="0%" x2="66.7%" y2="100%"><stop offset="20%" stop-color="#8ab5c0" stop-opacity="1"></stop><stop offset="80%" stop-color="#4b91a2" stop-opacity="1"></stop></linearGradient></defs><defs><linearGradient id="grad2_2" x1="0%" y1="0%" x2="66.7%" y2="100%"><stop offset="20%" stop-color="#8ab5c0" stop-opacity="1"></stop><stop offset="80%" stop-color="#c5d9df" stop-opacity="1"></stop></linearGradient></defs><defs><linearGradient id="grad2_3" x1="0%" y1="0%" x2="66.7%" y2="100%"><stop offset="20%" stop-color="#ffffff" stop-opacity="1"></stop><stop offset="80%" stop-color="#c5d9df" stop-opacity="1"></stop></linearGradient></defs><g transform="translate(900, 0)"><path d="M0 486.7C-86.6 474.9 -173.2 463 -243.4 421.5C-313.6 380.1 -367.5 309.2 -405.3 234C-443.1 158.8 -464.9 79.4 -486.7 0L0 0Z" fill="#e2ecef"></path><path d="M0 365.1C-64.9 356.1 -129.9 347.2 -182.5 316.2C-235.2 285.1 -275.6 231.9 -304 175.5C-332.4 119.1 -348.7 59.6 -365.1 0L0 0Z" fill="#a8c7d0"></path><path d="M0 243.4C-43.3 237.4 -86.6 231.5 -121.7 210.8C-156.8 190.1 -183.7 154.6 -202.6 117C-221.6 79.4 -232.5 39.7 -243.4 0L0 0Z" fill="#6ca3b1"></path><path d="M0 121.7C-21.6 118.7 -43.3 115.7 -60.8 105.4C-78.4 95 -91.9 77.3 -101.3 58.5C-110.8 39.7 -116.2 19.9 -121.7 0L0 0Z" fill="#4b91a2"></path></g><g transform="translate(0, 600)"><path d="M0 -486.7C81 -467.7 162 -448.7 237 -410.5C312 -372.3 380.9 -315 421.5 -243.4C462.2 -171.8 474.5 -85.9 486.7 0L0 0Z" fill="#e2ecef"></path><path d="M0 -365.1C60.8 -350.8 121.5 -336.5 177.7 -307.9C234 -279.2 285.7 -236.2 316.2 -182.5C346.6 -128.8 355.8 -64.4 365.1 0L0 0Z" fill="#a8c7d0"></path><path d="M0 -243.4C40.5 -233.9 81 -224.3 118.5 -205.2C156 -186.2 190.5 -157.5 210.8 -121.7C231.1 -85.9 237.2 -42.9 243.4 0L0 0Z" fill="#6ca3b1"></path><path d="M0 -121.7C20.3 -116.9 40.5 -112.2 59.2 -102.6C78 -93.1 95.2 -78.7 105.4 -60.8C115.5 -42.9 118.6 -21.5 121.7 0L0 0Z" fill="#4b91a2"></path></g></svg>