<svg id="visual" viewBox="0 0 900 600" width="900" height="600" xmlns="http://www.w3.org/2000/svg" xmlns:xlink="http://www.w3.org/1999/xlink" version="1.1"><rect x="0" y="0" width="900" height="600" fill="#1A1A1D"></rect><defs><linearGradient id="grad1_0" x1="33.3%" y1="0%" x2="100%" y2="100%"><stop offset="20%" stop-color="#6a1e55" stop-opacity="1"></stop><stop offset="80%" stop-color="#6a1e55" stop-opacity="1"></stop></linearGradient></defs><defs><linearGradient id="grad1_1" x1="33.3%" y1="0%" x2="100%" y2="100%"><stop offset="20%" stop-color="#6a1e55" stop-opacity="1"></stop><stop offset="80%" stop-color="#362342" stop-opacity="1"></stop></linearGradient></defs><defs><linearGradient id="grad1_2" x1="33.3%" y1="0%" x2="100%" y2="100%"><stop offset="20%" stop-color="#1a1a1d" stop-opacity="1"></stop><stop offset="80%" stop-color="#362342" stop-opacity="1"></stop></linearGradient></defs><defs><linearGradient id="grad2_0" x1="0%" y1="0%" x2="66.7%" y2="100%"><stop offset="20%" stop-color="#6a1e55" stop-opacity="1"></stop><stop offset="80%" stop-color="#6a1e55" stop-opacity="1"></stop></linearGradient></defs><defs><linearGradient id="grad2_1" x1="0%" y1="0%" x2="66.7%" y2="100%"><stop offset="20%" stop-color="#362342" stop-opacity="1"></stop><stop offset="80%" stop-color="#6a1e55" stop-opacity="1"></stop></linearGradient></defs><defs><linearGradient id="grad2_2" x1="0%" y1="0%" x2="66.7%" y2="100%"><stop offset="20%" stop-color="#362342" stop-opacity="1"></stop><stop offset="80%" stop-color="#1a1a1d" stop-opacity="1"></stop></linearGradient></defs><g transform="translate(900, 0)"><path d="M0 513.8C-67.7 506 -135.5 498.1 -195.9 473C-256.4 447.9 -309.5 405.5 -357.8 357.8C-406.1 310.1 -449.5 257.1 -474.7 196.6C-499.9 136.1 -506.8 68.1 -513.8 0L0 0Z" fill="#252031"></path><path d="M0 342.5C-45.2 337.3 -90.3 332.1 -130.6 315.4C-170.9 298.6 -206.3 270.3 -238.5 238.5C-270.7 206.7 -299.7 171.4 -316.5 131.1C-333.2 90.7 -337.9 45.4 -342.5 0L0 0Z" fill="#4e234f"></path><path d="M0 171.3C-22.6 168.7 -45.2 166 -65.3 157.7C-85.5 149.3 -103.2 135.2 -119.3 119.3C-135.4 103.4 -149.8 85.7 -158.2 65.5C-166.6 45.4 -168.9 22.7 -171.3 0L0 0Z" fill="#6a1e55"></path></g><g transform="translate(0, 600)"><path d="M0 -513.8C67.6 -506.4 135.1 -499.1 196.6 -474.7C258.1 -450.3 313.6 -408.8 359.9 -359.9C406.2 -311.1 443.4 -254.9 467.5 -193.6C491.6 -132.4 502.7 -66.2 513.8 0L0 0Z" fill="#252031"></path><path d="M0 -342.5C45 -337.6 90.1 -332.7 131.1 -316.5C172.1 -300.2 209.1 -272.5 239.9 -239.9C270.8 -207.4 295.6 -169.9 311.7 -129.1C327.7 -88.3 335.1 -44.1 342.5 0L0 0Z" fill="#4e234f"></path><path d="M0 -171.3C22.5 -168.8 45 -166.4 65.5 -158.2C86 -150.1 104.5 -136.3 120 -120C135.4 -103.7 147.8 -85 155.8 -64.5C163.9 -44.1 167.6 -22.1 171.3 0L0 0Z" fill="#6a1e55"></path></g></svg>